# xmcd
#
# Track frame offsets:
#	150
#	5426
#	21780
#	40480
#	57094
#	73253
#	94465
#	112453
#	128583
#	149070
#	169040
#	187236
#	206288
#
# Disc length: 2987 seconds
#
# Revision: 0
# Processed by: cddbd v1.5.2PL0 Copyright (c) Steve Scherf et al.
# Submitted via: EasyCDDAExtractor 10.1.0.1
#
DISCID=c80ba90d
DTITLE=김동완 - 1집 - KIMDONGWAN IS
DYEAR=2007
DGENRE=Pop
TTITLE0=Dongwan Is (Intro)
TTITLE1=들어봐... For 신화창조
TTITLE2=내 잘못이니까
TTITLE3=손수건
TTITLE4=삼총사 (Feat. MC 몽 and 허인창)
TTITLE5=SCREAM (Feat. D.Bace and DJ Tukutz of Epik High)
TTITLE6=사랑이 가여워
TTITLE7=My Love (Feat. Eric)
TTITLE8=여름이 좋아 (Feat. 앤디)
TTITLE9=남은 사람 (Duet With 신혜성)
TTITLE10=사랑해선 안될 사람 (Duet With 별)
TTITLE11=진담
TTITLE12=손수건 Remix
EXTD=
EXTT0=
EXTT1=
EXTT2=
EXTT3=
EXTT4=
EXTT5=
EXTT6=
EXTT7=
EXTT8=
EXTT9=
EXTT10=
EXTT11=
EXTT12=
PLAYORDER=
